HIERARCHY
ROOT Hips
{
	OFFSET -10.056300 7.733616 -472.549988
	CHANNELS 6 Xposition Yposition Zposition Zrotation Xrotation Yrotation
	JOINT Spine
	{
		OFFSET 0.000000 0.000000 0.000000
		CHANNELS 6 Xposition Yposition Zposition Zrotation Xrotation Yrotation
		JOINT Spine1
		{
			OFFSET 19.000000 0.000000 0.000000
			CHANNELS 3 Zrotation Xrotation Yrotation
			JOINT Neck
			{
				OFFSET 22.500000 0.600002 0.000000
				CHANNELS 6 Xposition Yposition Zposition Zrotation Xrotation Yrotation
				JOINT Head
				{
					OFFSET 14.000000 0.030878 0.000000
					CHANNELS 6 Xposition Yposition Zposition Zrotation Xrotation Yrotation
					End Site
					{
						OFFSET 17.000000 0.000000 0.000000
					}
				}
			}
			JOINT LeftShoulder
			{
				OFFSET 19.799999 3.700002 4.299988
				CHANNELS 6 Xposition Yposition Zposition Zrotation Xrotation Yrotation
				JOINT LeftArm
				{
					OFFSET 8.000000 0.000000 0.000000
					CHANNELS 6 Xposition Yposition Zposition Zrotation Xrotation Yrotation
					JOINT LeftForeArm
					{
						OFFSET 15.200001 0.000000 0.000000
						CHANNELS 6 Xposition Yposition Zposition Zrotation Xrotation Yrotation
						JOINT LeftHand
						{
							OFFSET 17.799999 0.000000 0.000000
							CHANNELS 6 Xposition Yposition Zposition Zrotation Xrotation Yrotation
							End Site
							{
								OFFSET 7.199997 0.000000 0.000000
							}
						}
					}
				}
			}
			JOINT RightShoulder
			{
				OFFSET 19.799999 3.699998 -4.299988
				CHANNELS 6 Xposition Yposition Zposition Zrotation Xrotation Yrotation
				JOINT RightArm
				{
					OFFSET 8.000000 0.000000 0.151642
					CHANNELS 6 Xposition Yposition Zposition Zrotation Xrotation Yrotation
					JOINT RightForeArm
					{
						OFFSET 15.200001 0.000000 0.000000
						CHANNELS 6 Xposition Yposition Zposition Zrotation Xrotation Yrotation
						JOINT RightHand
						{
							OFFSET 17.799999 0.000000 0.000000
							CHANNELS 6 Xposition Yposition Zposition Zrotation Xrotation Yrotation
							End Site
							{
								OFFSET 7.199997 0.000000 0.000000
							}
						}
					}
				}
			}
		}
	}
	JOINT LeftUpLeg
	{
		OFFSET 5.984250 -7.665998 4.788788
		CHANNELS 6 Xposition Yposition Zposition Zrotation Xrotation Yrotation
		JOINT LeftLeg
		{
			OFFSET 16.000000 0.000000 0.000000
			CHANNELS 6 Xposition Yposition Zposition Zrotation Xrotation Yrotation
			JOINT LeftFoot
			{
				OFFSET 18.000000 0.000000 0.000000
				CHANNELS 6 Xposition Yposition Zposition Zrotation Xrotation Yrotation
				End Site
				{
					OFFSET 0.000000 -10.799999 0.000000
				}
			}
		}
	}
	JOINT RightUpLeg
	{
		OFFSET 5.984250 -7.665980 -4.788788
		CHANNELS 6 Xposition Yposition Zposition Zrotation Xrotation Yrotation
		JOINT RightLeg
		{
			OFFSET 16.000000 0.000000 0.000000
			CHANNELS 6 Xposition Yposition Zposition Zrotation Xrotation Yrotation
			JOINT RightFoot
			{
				OFFSET 18.000000 0.000000 0.000000
				CHANNELS 6 Xposition Yposition Zposition Zrotation Xrotation Yrotation
				End Site
				{
					OFFSET 0.000000 -10.800001 0.000000
				}
			}
		}
	}
	JOINT Tail
	{
		OFFSET 6.836960 -0.722574 0.000000
		CHANNELS 6 Xposition Yposition Zposition Zrotation Xrotation Yrotation
		JOINT Tail1
		{
			OFFSET 12.000000 0.000000 0.000000
			CHANNELS 6 Xposition Yposition Zposition Zrotation Xrotation Yrotation
			End Site
			{
				OFFSET 11.999999 0.000000 0.000000
			}
		}
	}
}
MOTION
Frames: 4
Frame Time: 0.041667
24.921974 47.253075 -25.485321 -3.309002 0.648402 82.811898 -0.000012 -0.000002 0.000037 -178.645018 1.388615 -5.441056 4.562718 -0.264899 15.172698 22.499990 0.600007 -0.000155 0.750147 5.171508 5.432860 13.999992 0.030978 -0.000001 -77.839110 96.899812 93.521163 19.799995 3.700030 4.299984 68.485993 -140.682240 44.049034 8.000010 0.000024 0.000079 121.030979 -4.042760 -124.945976 15.200005 0.000000 0.000021 -67.217790 -10.590680 7.782280 17.799997 0.000007 -0.000029 1.894140 1.494661 -10.069702 19.800014 3.699914 -4.300099 77.414525 -24.998250 39.218116 8.000046 0.000000 0.151625 31.918639 -44.178719 -48.315758 15.200035 0.000010 0.000004 -55.858318 -18.512295 2.616442 17.799995 0.000004 -0.000042 -14.109105 -0.642626 6.806855 5.984235 -7.666004 4.788737 -130.341975 -9.065510 -15.130109 16.000010 -0.000022 -0.000072 68.148691 11.665010 11.947119 18.000002 0.000012 -0.000053 47.937112 -4.163788 -6.801025 5.984243 -7.665977 -4.788785 -115.534986 1.500468 -4.848449 15.999996 -0.000002 0.000030 76.882706 -0.662831 -2.280336 18.000002 0.000000 -0.000107 54.737221 0.690914 -1.828476 6.836972 -0.722558 -0.000001 -52.750295 51.499995 -8.484218 11.999985 -0.000022 -0.000015 -4.957373 -49.770427 -3.590590 
24.978794 47.217102 -25.130646 -3.661993 0.624463 82.604806 -0.000014 0.000003 -0.000055 -178.867983 1.336122 -5.273924 5.240571 -0.153775 14.472402 22.499987 0.600019 -0.000222 0.822260 5.498922 4.848771 13.999945 0.030989 -0.000007 -78.395019 97.269311 93.772985 19.799999 3.699979 4.300044 68.547977 -140.657815 44.242994 7.999991 0.000042 0.000016 122.076968 -5.161184 -125.124967 15.200009 -0.000007 -0.000022 -65.866608 -6.228879 6.221758 17.800020 0.000002 -0.000067 -0.743579 1.258588 -8.641385 19.800007 3.699996 -4.299959 77.466223 -24.794953 38.801321 8.000008 -0.000008 0.151627 32.046442 -44.281315 -48.004451 15.200030 0.000006 -0.000020 -56.077718 -18.431291 2.692467 17.800005 0.000000 -0.000012 -13.697302 -0.634416 6.800676 5.984266 -7.666006 4.788656 -130.084983 -8.960678 -15.335411 16.000017 -0.000008 -0.000065 68.803098 11.510611 11.748119 18.000008 0.000000 -0.000088 47.595903 -4.123050 -6.771901 5.984243 -7.665976 -4.788925 -115.808986 1.551273 -4.915620 15.999991 -0.000004 -0.000075 77.935505 -0.730545 -2.348326 17.999996 0.000008 -0.000037 54.658524 0.670538 -1.808657 6.836947 -0.722575 -0.000121 -52.624074 50.983510 -8.397062 12.000000 -0.000011 0.000032 -5.064170 -50.211220 -3.536671 
25.035408 47.182610 -24.745514 -3.826746 0.594367 82.576297 -0.000010 0.000000 -0.000053 -179.200982 1.270896 -5.151803 6.096425 -0.086595 14.082700 22.500000 0.600019 -0.000167 0.706199 5.732510 4.169073 13.999951 0.030956 0.000008 -78.174158 97.348221 93.044416 19.800003 3.699978 4.300039 68.680981 -140.751703 44.407014 8.000045 0.000011 -0.000040 123.354965 -6.714245 -126.011990 15.200021 0.000000 -0.000016 -66.016702 -2.923120 6.096296 17.799986 0.000000 0.000041 -4.021057 1.149491 -8.404589 19.800007 3.699944 -4.300032 77.431826 -24.932146 39.085221 8.000028 0.000001 0.151625 31.561420 -44.369909 -48.622570 15.200027 0.000007 -0.000027 -55.856423 -18.265782 2.661338 17.800005 -0.000002 0.000005 -13.640800 -0.657766 6.842769 5.984242 -7.666017 4.788807 -129.732012 -8.921880 -15.199705 15.999975 -0.000010 -0.000073 69.239403 11.753813 11.448624 18.000000 0.000006 -0.000067 47.499898 -4.106843 -6.753244 5.984247 -7.665988 -4.788818 -116.206981 1.569349 -4.881254 15.999997 -0.000007 0.000002 79.216220 -0.822648 -2.408257 17.999994 0.000004 -0.000023 54.447522 0.652561 -1.796149 6.836941 -0.722552 -0.000060 -52.400098 50.715708 -8.444929 11.999996 0.000031 -0.000052 -5.074176 -50.556708 -3.340096 
25.075512 47.145607 -24.364807 -3.918801 0.481340 82.554393 -0.000015 0.000007 -0.000074 -179.469969 1.140296 -4.950114 6.986829 -0.062823 13.457806 22.499983 0.600018 -0.000202 0.508314 5.879388 3.770316 13.999968 0.030980 -0.000030 -78.171112 97.418421 92.715378 19.799999 3.699973 4.299961 68.679997 -140.767016 44.378044 8.000037 -0.000075 0.000077 124.215979 -7.423836 -126.696976 15.200014 0.000001 -0.000035 -66.243717 -2.492860 6.014599 17.799988 -0.000005 -0.000068 -4.405018 1.186131 -8.678657 19.800026 3.699946 -4.299948 77.333820 -25.125153 39.269920 7.999980 -0.000000 0.151582 31.458243 -44.340509 -49.054852 15.200037 -0.000006 -0.000015 -55.690610 -18.193886 2.626402 17.800007 0.000003 -0.000031 -13.597306 -0.630899 6.697224 5.984199 -7.666001 4.788671 -129.464979 -8.864759 -15.004915 15.999967 -0.000008 -0.000099 70.020101 11.627816 11.074828 18.000010 0.000002 -0.000119 47.307806 -4.056802 -6.704600 5.984238 -7.665982 -4.788864 -116.585988 1.665909 -4.645371 16.000015 -0.000004 -0.000040 80.526919 -0.870910 -2.539106 18.000000 0.000004 -0.000053 54.184318 0.625217 -1.800120 6.836933 -0.722536 -0.000066 -52.208795 50.623713 -8.499570 11.999979 -0.000008 -0.000039 -4.994920 -50.923315 -3.079943 
